<svg width="183" height="53" viewBox="0 0 183 53" fill="none" xmlns="http://www.w3.org/2000/svg">
<path fill-rule="evenodd" clip-rule="evenodd" d="M24.9957 6.39384C24.9957 3.07784 27.6858 0.387695 31.0018 0.387695C34.3178 0.387695 37.008 3.07784 37.008 6.39384C37.008 9.70983 34.3178 12.4 31.0018 12.4C27.6858 12.4 24.9957 9.70983 24.9957 6.39384ZM27.9079 6.39384C27.9079 8.10483 29.2908 9.48776 31.0018 9.48776C32.7128 9.48776 34.0957 8.09978 34.0957 6.39384C34.0957 4.68284 32.7128 3.29992 31.0018 3.29992C29.2908 3.29992 27.9079 4.68284 27.9079 6.39384ZM0.607763 18.2244C0.607763 15.61 2.72758 13.4902 5.34201 13.4902C7.95141 13.4902 10.0712 15.61 10.0712 18.2295C10.0712 20.8389 7.94636 22.9587 5.33697 22.9587C2.72758 22.9587 0.607763 20.8389 0.607763 18.2244ZM3.51998 18.2244C3.51998 19.2338 4.33763 20.0464 5.34201 20.0464C6.3464 20.0414 7.159 19.2288 7.16405 18.2194C7.159 17.215 6.3464 16.4024 5.34201 16.4024C4.33258 16.4024 3.51998 17.22 3.51998 18.2244ZM56.4851 19.3146C54.1735 19.3146 52.301 21.1871 52.301 23.4987C52.301 25.8103 54.1735 27.6828 56.4851 27.6828C58.7967 27.6828 60.6692 25.8103 60.6692 23.4987C60.6692 21.1921 58.7967 19.3146 56.4851 19.3146ZM56.4851 24.7756C55.7835 24.7756 55.2081 24.2053 55.2081 23.5037C55.2081 22.8022 55.7785 22.2268 56.48 22.2268C57.1816 22.2268 57.757 22.7971 57.757 23.4987C57.757 24.2053 57.1866 24.7756 56.4851 24.7756ZM46.4106 31.8114H46.7942C52.4067 31.8215 56.9542 36.4851 56.9492 42.2338C56.9492 47.8866 52.5833 52.4897 47.1273 52.6512L12.6198 52.5553C8.77889 52.5149 5.23073 50.4859 3.24214 47.2002C1.8794 45.0199 1.1627 42.5013 1.16775 39.9272C1.16775 32.5685 6.8963 26.5977 13.9724 26.5977C15.0525 26.5977 16.1276 26.739 17.1723 27.0166C19.8675 21.4495 25.0459 17.6843 30.9915 17.6843C38.532 17.6843 44.8359 23.7208 46.4106 31.8114ZM12.8015 48.462L46.9053 48.5579C49.984 48.4317 52.3815 45.8123 52.3815 42.5518C52.3815 39.2408 49.8023 36.5456 46.6378 36.5406H46.2592C44.1899 36.5406 42.4133 35.0769 42.0146 33.0429C40.8285 26.9611 36.1901 22.5448 30.9814 22.5448C26.9689 22.5448 23.2088 25.1542 21.1798 29.3635C20.453 30.8524 18.9439 31.8013 17.2834 31.8013C16.9048 31.8013 16.5314 31.7508 16.168 31.6549C15.4967 31.4732 14.8052 31.3874 14.1087 31.3874C9.49559 31.3874 5.74049 35.3747 5.74049 40.2856C5.73545 42.0168 6.21998 43.7177 7.13856 45.1864L7.17389 45.2419C8.36503 47.2204 10.4949 48.4368 12.8015 48.462Z" fill="url(#paint0_linear_6560_45600)"/>
<path d="M93.7413 16.4505V20.5961H86.9175V42.0581H81.7813V20.5961H74.9575V16.4505H93.7413Z" fill="#292C33"/>
<path d="M91.6527 31.8224C91.6527 29.7679 92.0563 27.9458 92.8634 26.356C93.695 24.7662 94.8078 23.5433 96.2019 22.6873C97.6205 21.8313 99.198 21.4033 100.935 21.4033C102.451 21.4033 103.772 21.709 104.897 22.3204C106.046 22.9319 106.963 23.7023 107.648 24.6317V21.7334H112.821V42.0581H107.648V39.0865C106.988 40.0403 106.071 40.8352 104.897 41.4711C103.747 42.0826 102.414 42.3883 100.898 42.3883C99.1858 42.3883 97.6205 41.948 96.2019 41.0676C94.8078 40.1871 93.695 38.9519 92.8634 37.3622C92.0563 35.7479 91.6527 33.9013 91.6527 31.8224ZM107.648 31.8958C107.648 30.6484 107.404 29.5845 106.915 28.704C106.425 27.799 105.765 27.1142 104.933 26.6495C104.102 26.1604 103.209 25.9158 102.255 25.9158C101.301 25.9158 100.421 26.1481 99.6138 26.6128C98.8067 27.0775 98.1463 27.7624 97.6327 28.6673C97.1436 29.5478 96.899 30.5995 96.899 31.8224C96.899 33.0453 97.1436 34.1215 97.6327 35.0509C98.1463 35.9558 98.8067 36.6529 99.6138 37.142C100.445 37.6312 101.326 37.8758 102.255 37.8758C103.209 37.8758 104.102 37.6434 104.933 37.1787C105.765 36.6896 106.425 36.0047 106.915 35.1242C107.404 34.2193 107.648 33.1431 107.648 31.8958Z" fill="#292C33"/>
<path d="M115.388 31.8958C115.388 29.7924 115.816 27.958 116.672 26.3927C117.528 24.8029 118.714 23.58 120.231 22.724C121.747 21.8435 123.484 21.4033 125.44 21.4033C127.959 21.4033 130.038 22.0392 131.677 23.311C133.34 24.5584 134.453 26.3193 135.016 28.5939H129.476C129.182 27.7134 128.681 27.0286 127.972 26.5395C127.287 26.0258 126.431 25.769 125.404 25.769C123.936 25.769 122.774 26.3071 121.918 27.3833C121.062 28.435 120.634 29.9391 120.634 31.8958C120.634 33.828 121.062 35.3321 121.918 36.4083C122.774 37.46 123.936 37.9858 125.404 37.9858C127.483 37.9858 128.84 37.0564 129.476 35.1976H135.016C134.453 37.3988 133.34 39.1476 131.677 40.4439C130.014 41.7402 127.935 42.3883 125.44 42.3883C123.484 42.3883 121.747 41.9603 120.231 41.1042C118.714 40.2238 117.528 39.0009 116.672 37.4355C115.816 35.8458 115.388 33.9992 115.388 31.8958Z" fill="#292C33"/>
<path d="M143.629 25.9525V35.7846C143.629 36.4694 143.788 36.9708 144.106 37.2888C144.449 37.5823 145.011 37.729 145.794 37.729H148.179V42.0581H144.95C140.621 42.0581 138.457 39.9547 138.457 35.7479V25.9525H136.035V21.7334H138.457V16.7073H143.629V21.7334H148.179V25.9525H143.629Z" fill="#292C33"/>
<path d="M153.349 19.3121C152.444 19.3121 151.686 19.0308 151.074 18.4683C150.487 17.8813 150.194 17.1598 150.194 16.3038C150.194 15.4477 150.487 14.7384 151.074 14.1759C151.686 13.5889 152.444 13.2954 153.349 13.2954C154.254 13.2954 155 13.5889 155.587 14.1759C156.198 14.7384 156.504 15.4477 156.504 16.3038C156.504 17.1598 156.198 17.8813 155.587 18.4683C155 19.0308 154.254 19.3121 153.349 19.3121ZM155.88 21.7334V42.0581H150.744V21.7334H155.88Z" fill="#292C33"/>
<path d="M158.505 31.8591C158.505 29.8291 158.921 28.0314 159.753 26.4661C160.609 24.8763 161.758 23.6412 163.201 22.7607C164.644 21.8802 166.234 21.4399 167.971 21.4399C169.414 21.4399 170.685 21.7212 171.786 22.2838C172.911 22.8218 173.816 23.5189 174.501 24.3749V21.7334H179.674V51.7435H174.501V39.2699C173.816 40.1504 172.899 40.8841 171.749 41.4711C170.6 42.0581 169.304 42.3516 167.86 42.3516C166.148 42.3516 164.571 41.9114 163.128 41.0309C161.709 40.1259 160.584 38.8786 159.753 37.2888C158.921 35.699 158.505 33.8891 158.505 31.8591ZM174.501 31.8958C174.501 30.6484 174.244 29.5723 173.73 28.6673C173.217 27.7624 172.544 27.0775 171.713 26.6128C170.906 26.1481 170.037 25.9158 169.108 25.9158C168.203 25.9158 167.335 26.1481 166.503 26.6128C165.696 27.0775 165.036 27.7624 164.522 28.6673C164.008 29.5478 163.752 30.6117 163.752 31.8591C163.752 33.1065 164.008 34.1948 164.522 35.1242C165.036 36.0292 165.696 36.714 166.503 37.1787C167.335 37.6434 168.203 37.8758 169.108 37.8758C170.037 37.8758 170.906 37.6434 171.713 37.1787C172.544 36.714 173.217 36.0292 173.73 35.1242C174.244 34.2193 174.501 33.1431 174.501 31.8958Z" fill="#292C33"/>
<defs>
<linearGradient id="paint0_linear_6560_45600" x1="56.3439" y1="58.946" x2="20.3625" y2="3.91525" gradientUnits="userSpaceOnUse">
<stop stop-color="#6352FF"/>
<stop offset="0.0001" stop-color="#6352FF"/>
<stop offset="0.632843" stop-color="#FD5DCD"/>
<stop offset="1" stop-color="#F5748D"/>
</linearGradient>
</defs>
</svg>
